<svg width="52" height="50" viewBox="0 0 52 50" fill="none" xmlns="http://www.w3.org/2000/svg">
<path d="M25.6244 16.9072C18.6282 16.9072 12.9434 22.5998 12.9434 29.5882C12.9434 36.5767 18.6359 42.2769 25.6244 42.2769C32.6128 42.2769 38.3053 36.5844 38.3053 29.5882C38.3053 22.5921 32.6128 16.9072 25.6244 16.9072ZM37.1175 29.5959C37.1175 35.9364 31.9649 41.0891 25.6244 41.0891C19.2839 41.0891 14.1312 35.9364 14.1312 29.5959C14.1312 23.2554 19.2839 18.1028 25.6244 18.1028C31.9649 18.1028 37.1175 23.2554 37.1175 29.5959Z" fill="white"/>
<path d="M51.2461 44.3814C50.8836 39.2676 49.017 34.4469 45.9163 30.4592C45.9317 30.1738 45.9395 29.8807 45.9395 29.5876C45.9395 23.6022 43.3401 18.2184 39.2136 14.5007C37.9332 13.3437 36.5217 12.3642 35.0177 11.5774C33.1279 6.94182 29.8961 2.89243 25.623 0C21.35 2.89243 18.1182 6.94182 16.2284 11.5851C9.74941 14.9789 5.31435 21.7742 5.31435 29.5876C5.31435 29.7496 5.31435 29.9115 5.31435 30.0735C5.31435 30.1275 5.31435 30.1892 5.31435 30.2432C5.31435 30.3126 5.31435 30.382 5.31435 30.4592C2.2291 34.4469 0.362518 39.2676 0 44.3814C3.47863 46.0706 7.35833 46.9653 11.2226 46.9653C12.4104 46.9653 13.5828 46.8805 14.7321 46.7262C17.8791 48.7316 21.6199 49.8963 25.623 49.8963C28.2995 49.8963 30.8526 49.3795 33.1896 48.4308C33.2359 48.4154 33.2745 48.3922 33.3208 48.3768C33.4673 48.3151 33.6061 48.2534 33.7527 48.1917C33.8221 48.1608 33.8915 48.13 33.9609 48.0991C34.0921 48.0451 34.2155 47.9834 34.3389 47.9217C34.5086 47.8446 34.6706 47.7597 34.8325 47.6749C34.848 47.6672 34.8634 47.6595 34.8788 47.6518C35.4419 47.3664 35.9895 47.0501 36.5217 46.7108C37.6633 46.865 38.8357 46.9499 40.0235 46.9499C43.8878 46.9499 47.7675 46.0551 51.2461 44.366V44.3814ZM38.8434 15.9045C42.2834 19.2366 44.4817 23.8413 44.6514 28.9474C44.1731 28.4152 43.6641 27.9061 43.1396 27.4125C42.6922 26.996 42.2294 26.5949 41.7512 26.217C41.0262 22.7383 39.1905 19.6608 36.6451 17.3623C34.2001 15.1486 31.1919 13.7448 27.9216 13.2897C27.1734 13.1818 26.4098 13.1278 25.6308 13.1278C23.9724 13.1278 22.3681 13.3746 20.8563 13.8374C21.2574 12.8038 21.7356 11.8165 22.2987 10.8601C23.3785 10.6673 24.4969 10.567 25.6308 10.567C26.5332 10.567 27.4125 10.6287 28.2764 10.7521C28.4923 10.783 28.716 10.8138 28.932 10.8524C32.6806 11.5157 36.0975 13.2512 38.8434 15.9045ZM23.2165 9.42546C23.9262 8.41503 24.736 7.46632 25.623 6.59473C26.5178 7.46632 27.3199 8.41503 28.0295 9.42546C27.2428 9.3329 26.4329 9.2789 25.623 9.2789C24.8132 9.2789 24.0033 9.32518 23.2165 9.42546ZM7.01124 25.6385C8.0988 20.5169 11.2535 16.1513 15.5574 13.4594C15.1563 14.7244 14.8478 16.0202 14.6395 17.3468C12.2253 19.5142 10.459 22.3758 9.64914 25.6153C9.32518 26.9188 9.16321 28.2609 9.16321 29.603C9.16321 31.5853 9.51801 33.529 10.2122 35.3802C10.2199 35.4033 10.2276 35.4264 10.2353 35.4496C10.2739 35.5421 10.3048 35.6347 10.3433 35.7273C11.2458 37.9795 12.6341 39.9772 14.3773 41.6124C13.3514 41.7666 12.3025 41.8515 11.238 41.8515C11.1841 41.8515 11.1378 41.8515 11.0838 41.8515C9.8034 40.332 8.7467 38.6043 7.99081 36.73C7.99081 36.73 7.97539 36.6991 7.97539 36.6837C7.92911 36.5757 7.88283 36.46 7.84426 36.3443C7.83655 36.3212 7.82884 36.298 7.82112 36.2749C7.79798 36.2209 7.77484 36.1669 7.75942 36.1052C6.99582 34.0149 6.61016 31.8321 6.61016 29.5953C6.61016 28.2687 6.749 26.942 7.02667 25.6385H7.01124ZM9.37146 41.7589C8.13736 41.6432 6.90326 41.4195 5.70772 41.0879C6.01625 39.8846 6.43276 38.7122 6.95725 37.5861C7.59744 39.0748 8.40732 40.4785 9.37146 41.7589ZM31.5005 47.6903C29.6493 48.292 27.6747 48.6236 25.623 48.6236C22.3912 48.6236 19.3446 47.8137 16.6758 46.3868C17.987 46.1014 19.2597 45.7158 20.4861 45.2453C22.1059 45.7775 23.8259 46.0629 25.623 46.0629C27.1965 46.0629 28.7237 45.8392 30.1661 45.4227C33.3439 44.5125 36.1283 42.6999 38.2417 40.1777C39.8769 38.2263 41.0725 35.8969 41.6664 33.3439C42.3606 34.2078 42.9776 35.1256 43.5175 36.0821C42.8233 37.9872 41.8438 39.7458 40.6174 41.3116C38.2649 44.3274 35.1256 46.5256 31.5005 47.698V47.6903ZM44.2966 37.5861C44.8133 38.7122 45.2376 39.8846 45.5461 41.0879C44.3505 41.4195 43.1164 41.6432 41.8823 41.7589C42.8465 40.4785 43.6564 39.0748 44.2966 37.5861ZM49.8886 43.6024C46.757 44.983 43.4404 45.6849 40.0158 45.6849C39.3756 45.6849 38.7354 45.6618 38.1029 45.6078C39.0593 44.8596 39.9541 44.0266 40.7717 43.1087C42.9236 43.0393 45.0216 42.6537 47.0424 41.9595C46.1631 37.5013 43.9572 33.5753 40.8719 30.5672C40.494 36.4369 36.7762 41.3887 31.5853 43.5638C31.5467 43.5792 31.5005 43.5947 31.4619 43.6178C31.0917 43.7721 30.7214 43.9032 30.3358 44.0266C30.1892 44.0729 30.0427 44.1191 29.9038 44.1577C29.6262 44.2348 29.3485 44.3043 29.0708 44.3737C28.8549 44.4277 28.6312 44.474 28.4152 44.5125C28.3535 44.5202 28.2918 44.5434 28.2301 44.5511C28.0681 44.5819 27.8984 44.6051 27.7287 44.6282C27.6362 44.6436 27.5359 44.6514 27.4433 44.6591C27.3045 44.6745 27.1734 44.6899 27.0345 44.7053C27.0114 44.7053 26.9806 44.7053 26.9574 44.7131C26.564 44.7439 26.1707 44.7671 25.7773 44.7748C25.7465 44.7748 25.7233 44.7748 25.6925 44.7748C25.6848 44.7748 25.677 44.7748 25.6693 44.7748C25.6539 44.7748 25.6462 44.7748 25.6308 44.7748C25.1294 44.7748 24.6358 44.7439 24.1498 44.6976C24.1113 44.6976 24.0727 44.6976 24.0341 44.6899C23.5945 44.6436 23.1703 44.5742 22.746 44.4971C22.6458 44.4817 22.5455 44.4585 22.4452 44.4354C22.4221 44.4354 22.399 44.4277 22.3758 44.42C21.7202 44.2734 21.08 44.0806 20.4552 43.8569C17.6091 45.0216 14.493 45.6849 11.2303 45.6849C7.96767 45.6849 4.48905 44.983 1.35751 43.6024C1.80487 39.4373 3.27808 35.6193 5.50718 32.3798C5.67687 33.5907 5.95454 34.7785 6.33249 35.9509C5.3452 37.8098 4.61246 39.8306 4.19595 41.9749C6.4559 42.7462 8.81612 43.1396 11.2303 43.1396C13.3206 43.1396 15.3337 42.8388 17.2543 42.2911C13.12 39.5761 10.3819 34.9097 10.3819 29.603C10.3819 24.9211 12.5107 20.7329 15.8582 17.9485C16.7684 11.454 20.2701 5.49947 25.623 1.58891C28.9166 3.99541 31.5159 7.18093 33.2359 10.783C32.1098 10.3279 30.9374 9.97309 29.7419 9.72627C28.6235 7.92911 27.2351 6.28621 25.623 4.8747C22.2678 7.82112 19.9076 11.7394 18.8355 16.0279C19.3214 15.7888 19.8151 15.5728 20.3241 15.3877C20.3704 15.3723 20.4244 15.3569 20.4707 15.3414C22.0827 14.7629 23.8105 14.4313 25.623 14.4313C25.6385 14.4313 25.6539 14.4313 25.6693 14.4313C25.6693 14.4313 25.677 14.4313 25.6847 14.4313C25.8004 14.4313 25.9084 14.4467 26.0241 14.4467C26.3635 14.4544 26.7029 14.4698 27.0345 14.5007H27.05C27.2659 14.5238 27.4819 14.5547 27.6979 14.5855C27.8213 14.601 27.9524 14.6164 28.0758 14.6395C28.1375 14.6472 28.1915 14.655 28.2532 14.6627C28.2532 14.6627 28.2841 14.6704 28.2995 14.6704C28.3381 14.6704 28.3843 14.6858 28.4229 14.6935C28.6466 14.7321 28.8626 14.7861 29.0785 14.8324C29.3485 14.8941 29.6185 14.9635 29.8807 15.0406C30.0272 15.0792 30.1738 15.1255 30.3203 15.1717C35.6656 16.8686 39.7304 21.4194 40.6945 27.0345C45.7081 30.9682 49.1558 36.8379 49.8886 43.6255V43.6024Z" fill="white"/>
<path d="M30.7819 26.3019V28.9398H26.2774V24.4353H28.9153V23.124H22.3282V24.4353H24.9661V28.9398H20.4616V26.3019H19.1504V32.8812H20.4616V30.251H24.9661V34.7478H22.3282V36.0591H28.9153V34.7478H26.2774V30.251H30.7819V32.8812H32.0932V26.3019H30.7819Z" fill="white"/>
</svg>
